# xmcd CD database file
#
# Track frame offsets:
#	150
#	17891
#	34364
#	53331
#	73133
#	96323
#	115731
#	130400
#	150337
#	167845
#	187553
#	201938
#	217880
#	237498
#	260793
#	277033
#	297615
#	317443
#
# Disc length: 4448 seconds
#
# Revision: 0
# Processed by: cddbd v1.5.2PL0 Copyright (c) Steve Scherf et al.
# Submitted via: Feurio! 1.68 - http://www.feurio.com
#
DISCID=0b115e12
DTITLE=Pino Daniele - Back home, raccolta 2007
DYEAR=1900
DGENRE=
TTITLE0=Narcisista in Azione
TTITLE1=Io per lei
TTITLE2=Che Male c'è
TTITLE3=Amore senza fine
TTITLE4=Senza Peccato
TTITLE5=Dubbi non ne ho
TTITLE6=Che soddisfazione
TTITLE7=Quanno piove
TTITLE8=A testa in giuù
TTITLE9=Che dio ti benedica
TTITLE10=Per te
TTITLE11=Soleado up and down
TTITLE12=Sicily
TTITLE13=Pigro
TTITLE14=Io per lei
TTITLE15=Anima
TTITLE16=Mareluna
TTITLE17=Back home 2007
EXTD=
EXTT0=
EXTT1=
EXTT2=
EXTT3=
EXTT4=
EXTT5=
EXTT6=
EXTT7=
EXTT8=
EXTT9=
EXTT10=
EXTT11=
EXTT12=
EXTT13=
EXTT14=
EXTT15=
EXTT16=
EXTT17=
PLAYORDER=
